<svg xmlns="http://www.w3.org/2000/svg" viewBox="0 0 660 360" width="660" height="360" font-family="Quicksand, 'Segoe UI', Helvetica, Arial, sans-serif" role="img"><title>Sept ordinateurs reliés entre eux, chacun client et serveur</title><rect width="660" height="360" rx="16" fill="#ffffff"/><text x="330" y="28" font-size="16" fill="#573D91" font-weight="700" text-anchor="middle">Le modèle pair-à-pair</text><line x1="330.0" y1="65.0" x2="502.00292614296654" y2="110.18122377695198" stroke="#9bc58a" stroke-width="2.5"/><line x1="330.0" y1="65.0" x2="425.4544226058628" y2="293.11626414829027" stroke="#9bc58a" stroke-width="2.5"/><line x1="330.0" y1="65.0" x2="157.99707385703343" y2="110.181223776952" stroke="#9bc58a" stroke-width="2.5"/><line x1="502.00292614296654" y1="110.18122377695198" x2="544.4841406800012" y2="211.70251207475772" stroke="#9bc58a" stroke-width="2.5"/><line x1="502.00292614296654" y1="110.18122377695198" x2="115.51585931999881" y2="211.70251207475775" stroke="#9bc58a" stroke-width="2.5"/><line x1="544.4841406800012" y1="211.70251207475772" x2="425.4544226058628" y2="293.11626414829027" stroke="#9bc58a" stroke-width="2.5"/><line x1="544.4841406800012" y1="211.70251207475772" x2="234.54557739413724" y2="293.11626414829027" stroke="#9bc58a" stroke-width="2.5"/><line x1="425.4544226058628" y1="293.11626414829027" x2="234.54557739413724" y2="293.11626414829027" stroke="#9bc58a" stroke-width="2.5"/><line x1="425.4544226058628" y1="293.11626414829027" x2="157.99707385703343" y2="110.181223776952" stroke="#9bc58a" stroke-width="2.5"/><line x1="234.54557739413724" y1="293.11626414829027" x2="115.51585931999881" y2="211.70251207475775" stroke="#9bc58a" stroke-width="2.5"/><line x1="115.51585931999881" y1="211.70251207475775" x2="157.99707385703343" y2="110.181223776952" stroke="#9bc58a" stroke-width="2.5"/><circle cx="330.0" cy="65.0" r="30" fill="#ffffff"/><rect x="308.0" y="49.0" width="44" height="30" rx="4" fill="#5b8def"/><rect x="313.0" y="54.0" width="34" height="20" rx="2" fill="#dfe8fd"/><rect x="320.0" y="79.0" width="20" height="5" rx="2" fill="#5b8def"/><circle cx="502.0" cy="110.2" r="30" fill="#ffffff"/><rect x="480.00292614296654" y="94.18122377695198" width="44" height="30" rx="4" fill="#5b8def"/><rect x="485.00292614296654" y="99.18122377695198" width="34" height="20" rx="2" fill="#dfe8fd"/><rect x="492.00292614296654" y="124.18122377695198" width="20" height="5" rx="2" fill="#5b8def"/><circle cx="544.5" cy="211.7" r="30" fill="#ffffff"/><rect x="522.4841406800012" y="195.70251207475772" width="44" height="30" rx="4" fill="#5b8def"/><rect x="527.4841406800012" y="200.70251207475772" width="34" height="20" rx="2" fill="#dfe8fd"/><rect x="534.4841406800012" y="225.70251207475772" width="20" height="5" rx="2" fill="#5b8def"/><circle cx="425.5" cy="293.1" r="30" fill="#ffffff"/><rect x="403.4544226058628" y="277.11626414829027" width="44" height="30" rx="4" fill="#5b8def"/><rect x="408.4544226058628" y="282.11626414829027" width="34" height="20" rx="2" fill="#dfe8fd"/><rect x="415.4544226058628" y="307.11626414829027" width="20" height="5" rx="2" fill="#5b8def"/><circle cx="234.5" cy="293.1" r="30" fill="#ffffff"/><rect x="212.54557739413724" y="277.11626414829027" width="44" height="30" rx="4" fill="#5b8def"/><rect x="217.54557739413724" y="282.11626414829027" width="34" height="20" rx="2" fill="#dfe8fd"/><rect x="224.54557739413724" y="307.11626414829027" width="20" height="5" rx="2" fill="#5b8def"/><circle cx="115.5" cy="211.7" r="30" fill="#ffffff"/><rect x="93.51585931999881" y="195.70251207475775" width="44" height="30" rx="4" fill="#5b8def"/><rect x="98.51585931999881" y="200.70251207475775" width="34" height="20" rx="2" fill="#dfe8fd"/><rect x="105.51585931999881" y="225.70251207475775" width="20" height="5" rx="2" fill="#5b8def"/><circle cx="158.0" cy="110.2" r="30" fill="#ffffff"/><rect x="135.99707385703343" y="94.181223776952" width="44" height="30" rx="4" fill="#5b8def"/><rect x="140.99707385703343" y="99.181223776952" width="34" height="20" rx="2" fill="#dfe8fd"/><rect x="147.99707385703343" y="124.181223776952" width="20" height="5" rx="2" fill="#5b8def"/><text x="330" y="345" font-size="13" fill="#8a8799" font-weight="600" text-anchor="middle">Chaque ordinateur, ou « pair », est à la fois client et serveur.</text></svg>